<svg width="24" height="24" viewBox="0 0 24 24" fill="none" xmlns="http://www.w3.org/2000/svg">
<g id="fi-rs-compress-alt" clip-path="url(#clip0_4_2902)">
<g id="01 align center">
<path id="Vector" d="M6.586 8L8 6.586L3.707 2.293L6 0H1C0.734784 0 0.48043 0.105357 0.292893 0.292893C0.105357 0.48043 0 0.734784 0 1V6L2.293 3.707L6.586 8Z" fill="#060714"/>
<path id="Vector_2" d="M18 23.9998H23C23.2652 23.9998 23.5196 23.8944 23.7071 23.7069C23.8946 23.5193 24 23.265 24 22.9998V17.9998L21.707 20.2928L17.414 15.9998L16 17.4138L20.293 21.7068L18 23.9998Z" fill="#060714"/>
<path id="Vector_3" d="M23 0H18L20.293 2.293L16 6.586L17.414 8L21.707 3.707L24 6V1C24 0.734784 23.8946 0.48043 23.7071 0.292893C23.5196 0.105357 23.2652 0 23 0Z" fill="#060714"/>
<path id="Vector_4" d="M1 23.9998H6L3.707 21.7068L8 17.4138L6.586 15.9998L2.293 20.2928L0 17.9998V22.9998C0 23.265 0.105357 23.5193 0.292893 23.7069C0.48043 23.8944 0.734784 23.9998 1 23.9998Z" fill="#060714"/>
</g>
</g>
<defs>
<clipPath id="clip0_4_2902">
<rect width="24" height="24" fill="white"/>
</clipPath>
</defs>
</svg>
