<svg width="20" height="20" viewBox="0 0 20 20" fill="none" xmlns="http://www.w3.org/2000/svg">
<g id="fi-rr-copy-alt" clip-path="url(#clip0_12564_1153)">
<path id="Vector" d="M10.8334 16.6667C11.9381 16.6654 12.9971 16.2259 13.7782 15.4448C14.5593 14.6637 14.9988 13.6047 15.0001 12.5V5.20251C15.0014 4.76448 14.9157 4.33055 14.7481 3.92586C14.5804 3.52118 14.3341 3.1538 14.0234 2.84501L12.1551 0.976681C11.8463 0.665993 11.4789 0.419684 11.0742 0.252031C10.6695 0.0843791 10.2356 -0.00128163 9.79758 1.44913e-05H5.83342C4.72875 0.00133771 3.66971 0.440749 2.8886 1.22186C2.10748 2.00298 1.66807 3.06202 1.66675 4.16668V12.5C1.66807 13.6047 2.10748 14.6637 2.8886 15.4448C3.66971 16.2259 4.72875 16.6654 5.83342 16.6667H10.8334ZM3.33341 12.5V4.16668C3.33341 3.50364 3.59681 2.86776 4.06565 2.39891C4.53449 1.93007 5.17037 1.66668 5.83342 1.66668C5.83342 1.66668 9.93258 1.67835 10.0001 1.68668V3.33335C10.0001 3.77538 10.1757 4.1993 10.4882 4.51186C10.8008 4.82442 11.2247 5.00001 11.6667 5.00001H13.3134C13.3217 5.06751 13.3334 12.5 13.3334 12.5C13.3334 13.1631 13.07 13.7989 12.6012 14.2678C12.1323 14.7366 11.4965 15 10.8334 15H5.83342C5.17037 15 4.53449 14.7366 4.06565 14.2678C3.59681 13.7989 3.33341 13.1631 3.33341 12.5ZM18.3334 6.66668V15.8333C18.3321 16.938 17.8927 17.9971 17.1116 18.7782C16.3305 19.5593 15.2714 19.9987 14.1667 20H6.66675C6.44573 20 6.23377 19.9122 6.07749 19.7559C5.92121 19.5997 5.83342 19.3877 5.83342 19.1667C5.83342 18.9457 5.92121 18.7337 6.07749 18.5774C6.23377 18.4211 6.44573 18.3333 6.66675 18.3333H14.1667C14.8298 18.3333 15.4657 18.07 15.9345 17.6011C16.4034 17.1323 16.6667 16.4964 16.6667 15.8333V6.66668C16.6667 6.44567 16.7545 6.23371 16.9108 6.07743C17.0671 5.92115 17.2791 5.83335 17.5001 5.83335C17.7211 5.83335 17.9331 5.92115 18.0893 6.07743C18.2456 6.23371 18.3334 6.44567 18.3334 6.66668Z" fill="#7780A1"/>
</g>
<defs>
<clipPath id="clip0_12564_1153">
<rect width="20" height="20" fill="white"/>
</clipPath>
</defs>
</svg>
