<svg width="23" height="23" viewBox="0 0 23 23" fill="none" xmlns="http://www.w3.org/2000/svg">
<g id="Size=20, Theme=Regular">
<path id="Vector" d="M5.70558 18.8315C4.86106 18.8315 4.16704 18.1872 4.08831 17.3633L4.08087 17.2068V5.29226C4.08087 4.44774 4.72522 3.75372 5.54911 3.67499L5.70558 3.66755H10.5797C11.4242 3.66755 12.1183 4.3119 12.197 5.13579L12.2044 5.29226V5.56785L14.575 3.10993C15.1588 2.50425 16.0992 2.44976 16.7488 2.96033L16.8747 3.06999L19.8616 6.02116C20.46 6.61244 20.5028 7.55352 19.9813 8.19956L19.8695 8.32464L17.3667 10.7073L17.6201 10.708C18.4647 10.708 19.1587 11.3523 19.2374 12.1762L19.2448 12.3327V17.2068C19.2448 18.0513 18.6005 18.7454 17.7766 18.8241L17.6201 18.8315H5.70558ZM11.1213 11.7911H5.16401V17.2068C5.16401 17.4394 5.31069 17.6378 5.51661 17.7145L5.60823 17.7397L5.70558 17.7484H11.1213V11.7911ZM17.6201 11.7911H12.2044V17.7484H17.6201C17.886 17.7484 18.1071 17.5568 18.153 17.3042L18.1617 17.2068V12.3327C18.1617 12.0668 17.9701 11.8457 17.7175 11.7998L17.6201 11.7911ZM12.2044 8.76853V10.7073H14.1433L12.2044 8.76853ZM10.5797 4.75069H5.70558C5.43972 4.75069 5.21859 4.94227 5.17274 5.19492L5.16401 5.29226V10.708H11.1213V5.29226C11.1213 5.05963 10.9746 4.86125 10.7687 4.78458L10.6771 4.75942L10.5797 4.75069ZM16.1278 3.85456C15.93 3.66378 15.6371 3.64757 15.4287 3.79757L15.3548 3.8616L12.5213 6.80139C12.342 6.98738 12.322 7.26901 12.4597 7.47636L12.5283 7.56018L15.3615 10.3934C15.5434 10.5752 15.8231 10.6011 16.0328 10.4689L16.1179 10.4026L19.1049 7.55753C19.2917 7.36842 19.3109 7.07647 19.1634 6.86628L19.1003 6.79164L16.1278 3.85456Z" fill="#7780A1"/>
</g>
</svg>
