<svg width="20" height="21" viewBox="0 0 20 21" fill="none" xmlns="http://www.w3.org/2000/svg">
<g id="Timer Icon">
<path id="Vector" d="M7.5 2.5C7.22386 2.5 7 2.72386 7 3C7 3.27614 7.22386 3.5 7.5 3.5H11.5C11.7761 3.5 12 3.27614 12 3C12 2.72386 11.7761 2.5 11.5 2.5H7.5ZM15.1563 4.42899C14.961 4.23373 14.6444 4.23373 14.4492 4.42899C14.2539 4.62426 14.2539 4.94084 14.4492 5.1361L15.8634 6.55031C16.0587 6.74558 16.3752 6.74558 16.5705 6.55031C16.7658 6.35505 16.7658 6.03847 16.5705 5.84321L15.1563 4.42899ZM9.5 6.5C9.22386 6.5 9 6.72386 9 7V12C9 12.2761 9.22386 12.5 9.5 12.5C9.77614 12.5 10 12.2761 10 12V7C10 6.72386 9.77614 6.5 9.5 6.5ZM9.5 18.5C13.366 18.5 16.5 15.366 16.5 11.5C16.5 7.63401 13.366 4.5 9.5 4.5C5.63401 4.5 2.5 7.63401 2.5 11.5C2.5 15.366 5.63401 18.5 9.5 18.5ZM9.5 17.5C6.18629 17.5 3.5 14.8137 3.5 11.5C3.5 8.18629 6.18629 5.5 9.5 5.5C12.8137 5.5 15.5 8.18629 15.5 11.5C15.5 14.8137 12.8137 17.5 9.5 17.5Z" fill="#060714"/>
</g>
</svg>
