<svg width="213" height="34" viewBox="0 0 213 34" fill="none" xmlns="http://www.w3.org/2000/svg">
<path d="M51.5518 26V6.15022H58.8663L66.3439 22.3835H67.2684L66.7246 22.873V6.15022H70.9121V26H63.5432L56.0655 9.76668H55.141L55.6849 9.27724V26H51.5518Z" fill="#060714"/>
<path d="M75.5975 26V6.15022H80.0569V26H75.5975ZM79.513 18.0057V14.3077H87.181V18.0057H79.513ZM79.513 9.84826V6.15022H87.5073V9.84826H79.513Z" fill="#060714"/>
<path d="M95.2214 26V9.49477H99.6808V26H95.2214ZM89.6471 10.0386V6.15022H105.282V10.0386H89.6471Z" fill="#060714"/>
<path d="M114.25 26V6.15022H120.395L124.936 17.2987H125.453L129.939 6.15022H136.193V26H131.788V9.0597L132.414 9.11409L127.166 21.9757H122.924L117.649 9.11409L118.328 9.0597V26H114.25Z" fill="#060714"/>
<path d="M149.627 26V21.595H148.893V16.8093C148.893 16.0479 148.711 15.4769 148.349 15.0962C147.986 14.7155 147.406 14.5252 146.609 14.5252C146.21 14.5252 145.684 14.5343 145.031 14.5524C144.379 14.5705 143.708 14.5977 143.019 14.634C142.33 14.6702 141.705 14.7065 141.143 14.7427V11.0719C141.56 11.0356 142.049 10.9994 142.611 10.9631C143.173 10.9269 143.753 10.8997 144.352 10.8815C144.95 10.8634 145.512 10.8543 146.038 10.8543C147.56 10.8543 148.838 11.0719 149.872 11.5069C150.923 11.942 151.721 12.6037 152.264 13.4919C152.808 14.362 153.08 15.486 153.08 16.8637V26H149.627ZM144.868 26.3807C143.799 26.3807 142.856 26.1903 142.04 25.8097C141.243 25.429 140.617 24.8852 140.164 24.1782C139.711 23.4531 139.484 22.592 139.484 21.595C139.484 20.5073 139.765 19.6191 140.327 18.9302C140.889 18.2232 141.678 17.7066 142.693 17.3803C143.708 17.0359 144.877 16.8637 146.201 16.8637H149.382V19.2837H146.174C145.412 19.2837 144.823 19.474 144.406 19.8547C144.007 20.2173 143.808 20.7158 143.808 21.3503C143.808 21.9485 144.007 22.4379 144.406 22.8186C144.823 23.1812 145.412 23.3624 146.174 23.3624C146.663 23.3624 147.098 23.2809 147.479 23.1177C147.878 22.9364 148.204 22.6373 148.458 22.2204C148.711 21.8034 148.856 21.2234 148.893 20.4801L149.926 21.5678C149.835 22.6011 149.582 23.4712 149.165 24.1782C148.766 24.8852 148.204 25.429 147.479 25.8097C146.772 26.1903 145.902 26.3807 144.868 26.3807Z" fill="#060714"/>
<path d="M156.998 26V11.0991H160.451V17.4891H160.37C160.37 15.3863 160.814 13.7638 161.702 12.6218C162.609 11.4797 163.914 10.9087 165.618 10.9087H166.189V14.6612H165.101C163.905 14.6612 162.98 14.9874 162.328 15.64C161.675 16.2745 161.349 17.199 161.349 18.4136V26H156.998Z" fill="#060714"/>
<path d="M179.165 26L174.461 19.039H172.368L178.431 11.0991H182.999L177.289 18.4951L177.344 16.3742L184.06 26H179.165ZM168.669 26V6.15022H173.02V26H168.669Z" fill="#060714"/>
<path d="M192.503 26.5166C191.234 26.5166 190.111 26.2991 189.132 25.864C188.171 25.429 187.364 24.8489 186.712 24.1238C186.077 23.3806 185.588 22.5557 185.243 21.6494C184.917 20.7249 184.754 19.7822 184.754 18.8214V18.2776C184.754 17.2806 184.917 16.3289 185.243 15.4225C185.588 14.498 186.077 13.6732 186.712 12.9481C187.346 12.223 188.135 11.652 189.077 11.235C190.038 10.8 191.126 10.5824 192.34 10.5824C193.935 10.5824 195.277 10.945 196.365 11.6701C197.47 12.3771 198.313 13.3106 198.893 14.4708C199.473 15.6129 199.764 16.8637 199.764 18.2232V19.6916H186.576V17.2172H197.126L195.712 18.3592C195.712 17.4709 195.585 16.7096 195.331 16.0751C195.077 15.4406 194.697 14.9603 194.189 14.634C193.7 14.2895 193.083 14.1173 192.34 14.1173C191.579 14.1173 190.935 14.2895 190.41 14.634C189.884 14.9784 189.485 15.486 189.213 16.1567C188.941 16.8093 188.805 17.616 188.805 18.5767C188.805 19.465 188.932 20.2445 189.186 20.9152C189.44 21.5678 189.839 22.0754 190.382 22.4379C190.926 22.8005 191.633 22.9817 192.503 22.9817C193.301 22.9817 193.954 22.8277 194.461 22.5195C194.969 22.2113 195.313 21.8306 195.494 21.3774H199.492C199.274 22.3745 198.848 23.2627 198.214 24.0422C197.579 24.8217 196.782 25.429 195.821 25.864C194.86 26.2991 193.754 26.5166 192.503 26.5166Z" fill="#060714"/>
<path d="M209.644 26.1903C208.139 26.1903 206.925 26.0091 206 25.6465C205.076 25.2658 204.396 24.6404 203.961 23.7703C203.544 22.882 203.335 21.6856 203.335 20.181V7.07473H207.387V20.3442C207.387 21.0512 207.568 21.595 207.931 21.9757C208.311 22.3382 208.846 22.5195 209.535 22.5195H211.737V26.1903H209.644ZM201.078 14.2805V11.0991H211.737V14.2805H201.078Z" fill="#060714"/>
<path d="M0 30.6001C5.63333 30.6001 10.2 26.0333 10.2 20.4001C10.2 14.7667 5.63333 10.2 0 10.2V17.34C1.68998 17.34 3.05998 18.71 3.05998 20.4001C3.05998 22.09 1.68998 23.4601 0 23.4601V30.6001Z" fill="#76DECC"/>
<path d="M33.9997 13.6C32.2567 13.0479 30.4005 12.7499 28.4747 12.7499C18.3816 12.7499 10.1997 20.932 10.1997 31.0249C10.1997 32.038 10.2821 33.0318 10.4406 34H21.7955C21.3901 33.0912 21.1648 32.0844 21.1648 31.0249C21.1648 26.9878 24.4375 23.7149 28.4747 23.7149C30.6812 23.7149 32.6593 24.6926 33.9997 26.2383V13.6Z" fill="#EA6CBC"/>
<path d="M1.79346 0C2.63911 7.64992 9.12477 13.6001 17.0001 13.6001C24.8753 13.6001 31.361 7.64992 32.2067 0H21.2649C20.5894 1.69339 18.9344 2.88999 17.0001 2.88999C15.0657 2.88999 13.4108 1.69339 12.7352 0H1.79346Z" fill="#2A27C9"/>
</svg>
