<svg width="1920" height="1191" viewBox="0 0 1920 1191" fill="none" xmlns="http://www.w3.org/2000/svg">
<g clip-path="url(#clip0_4_3734)">
<ellipse opacity="0.1" cx="960" cy="746.5" rx="1059" ry="1058.5" fill="#060714" stroke="#0D0F2B" stroke-width="3" stroke-miterlimit="4.62023" stroke-linecap="round" stroke-dasharray="35 50 15 15"/>
<path opacity="0.1" d="M1936.5 746.5C1936.5 1285.53 1499.31 1722.5 960 1722.5C420.693 1722.5 -16.5 1285.53 -16.5 746.5C-16.5 207.471 420.693 -229.5 960 -229.5C1499.31 -229.5 1936.5 207.471 1936.5 746.5Z" fill="#060714" stroke="#0D0F2B" stroke-width="3"/>
<ellipse opacity="0.2" cx="960" cy="746.5" rx="896" ry="895.5" fill="#060714" stroke="#0D0F2B" stroke-width="3" stroke-miterlimit="4.62023" stroke-linecap="round" stroke-dasharray="35 50 15 15"/>
<path opacity="0.3" d="M1774.5 746.5C1774.5 1196.06 1409.84 1560.5 960 1560.5C510.163 1560.5 145.5 1196.06 145.5 746.5C145.5 296.941 510.163 -67.5 960 -67.5C1409.84 -67.5 1774.5 296.941 1774.5 746.5Z" fill="#060714" stroke="#0D0F2B" stroke-width="3"/>
<ellipse opacity="0.4" cx="960" cy="746.5" rx="734" ry="733.5" fill="#060714" stroke="#0D0F2B" stroke-width="3" stroke-miterlimit="4.62023" stroke-linecap="round" stroke-dasharray="35 50 15 15"/>
<path opacity="0.5" d="M1609.5 746.5C1609.5 1104.93 1318.71 1395.5 960 1395.5C601.29 1395.5 310.5 1104.93 310.5 746.5C310.5 388.068 601.29 97.5 960 97.5C1318.71 97.5 1609.5 388.068 1609.5 746.5Z" fill="#060714" stroke="#0D0F2B" stroke-width="3"/>
<path opacity="0.6" d="M1530.5 746.5C1530.5 1061.3 1275.08 1316.5 960 1316.5C644.92 1316.5 389.5 1061.3 389.5 746.5C389.5 431.699 644.92 176.5 960 176.5C1275.08 176.5 1530.5 431.699 1530.5 746.5Z" fill="#060714" stroke="#0D0F2B" stroke-width="3"/>
<ellipse opacity="0.7" cx="960" cy="746.5" rx="495" ry="494.5" fill="#060714" stroke="#0D0F2B" stroke-width="3" stroke-miterlimit="4.62023" stroke-linecap="round" stroke-dasharray="35 50 15 15"/>
<path opacity="0.8" d="M1367.5 746.5C1367.5 971.278 1185.06 1153.5 960 1153.5C734.942 1153.5 552.5 971.278 552.5 746.5C552.5 521.722 734.942 339.5 960 339.5C1185.06 339.5 1367.5 521.722 1367.5 746.5Z" fill="#060714" stroke="#0D0F2B" stroke-width="3"/>
<ellipse opacity="0.9" cx="960" cy="746.5" rx="315" ry="314.5" fill="#060714" stroke="#0D0F2B" stroke-width="3" stroke-miterlimit="4.62023" stroke-linecap="round" stroke-dasharray="35 50 15 15"/>
<path d="M1183.5 746.5C1183.5 869.656 1083.44 969.5 960 969.5C836.561 969.5 736.5 869.656 736.5 746.5C736.5 623.344 836.561 523.5 960 523.5C1083.44 523.5 1183.5 623.344 1183.5 746.5Z" fill="#060714" stroke="#0D0F2B" stroke-width="3"/>
<ellipse cx="960" cy="746.5" rx="151" ry="150.5" fill="#060714" stroke="#0D0F2B" stroke-width="3" stroke-miterlimit="4.62023" stroke-linecap="round" stroke-dasharray="35 50 15 15"/>
</g>
<rect x="1" y="636" width="1920" height="555" fill="url(#paint0_linear_4_3734)"/>
<g opacity="0.1" filter="url(#filter0_f_4_3734)">
<path opacity="0.75" d="M1920 948.002C1601.88 948.002 1344 832.49 1344 690.002C1344 547.512 1601.88 432.001 1920 432.001V612.6C1824.57 612.6 1747.2 647.254 1747.2 690.002C1747.2 732.748 1824.57 767.402 1920 767.402V948.002Z" fill="#8BC0B7"/>
<path d="M0.000244141 518.001C98.4297 504.035 203.248 496.499 312.002 496.499C881.961 496.499 1344 703.458 1344 958.749C1344 984.374 1339.34 1009.51 1330.39 1034H689.18C712.069 1011.01 724.795 985.548 724.795 958.749C724.795 856.633 539.983 773.849 312.002 773.849C187.395 773.849 75.6898 798.578 0.000244141 837.676V518.001Z" fill="#B47DA0"/>
<path d="M1818.73 174C1770.97 367.498 1404.73 518.001 960 518.001C515.282 518.001 149.029 367.498 101.278 174H719.163C757.309 216.833 850.767 247.1 960 247.1C1069.24 247.1 1162.69 216.833 1200.84 174H1818.73Z" fill="#2A27C9"/>
</g>
<circle cx="1692.5" cy="1008.5" r="6.5" fill="#0E1028"/>
<circle cx="1692.5" cy="1008.5" r="15" stroke="#0E1028"/>
<circle cx="214.5" cy="1003.5" r="6.5" fill="#0E1028"/>
<circle cx="214.5" cy="1003.5" r="15" stroke="#0E1028"/>
<circle cx="528.5" cy="988.5" r="6.5" fill="#0E1028"/>
<circle cx="528.5" cy="988.5" r="15" stroke="#0E1028"/>
<g opacity="0.5">
<circle cx="1528.5" cy="705.5" r="6.5" fill="#0E1028"/>
<circle cx="1528.5" cy="705.5" r="15" stroke="#0E1028"/>
</g>
<circle cx="399.5" cy="269.5" r="6.5" fill="#0E1028"/>
<circle cx="399.5" cy="269.5" r="15" stroke="#0E1028"/>
<circle cx="1395.5" cy="263.5" r="6.5" fill="#0E1028"/>
<circle cx="1395.5" cy="263.5" r="15" stroke="#0E1028"/>
<circle cx="1876.5" cy="272.5" r="6.5" fill="#0E1028"/>
<circle cx="1876.5" cy="272.5" r="15" stroke="#0E1028"/>
<defs>
<filter id="filter0_f_4_3734" x="-250" y="-76" width="2420" height="1360" filterUnits="userSpaceOnUse" color-interpolation-filters="sRGB">
<feFlood flood-opacity="0" result="BackgroundImageFix"/>
<feBlend mode="normal" in="SourceGraphic" in2="BackgroundImageFix" result="shape"/>
<feGaussianBlur stdDeviation="125" result="effect1_foregroundBlur_4_3734"/>
</filter>
<linearGradient id="paint0_linear_4_3734" x1="961" y1="636" x2="961" y2="1191" gradientUnits="userSpaceOnUse">
<stop stop-color="#060714" stop-opacity="0"/>
<stop offset="1" stop-color="#060714"/>
</linearGradient>
<clipPath id="clip0_4_3734">
<rect width="1920" height="1191" fill="white"/>
</clipPath>
</defs>
</svg>
