<svg width="1918" height="1187" viewBox="0 0 1918 1187" fill="none" xmlns="http://www.w3.org/2000/svg">
<g clip-path="url(#clip0_4_2494)">
<ellipse opacity="0.1" cx="958" cy="742.5" rx="1059" ry="1058.5" fill="white" stroke="#F7F8FC" stroke-width="3" stroke-miterlimit="4.62023" stroke-linecap="round" stroke-dasharray="35 50 15 15"/>
<path opacity="0.1" d="M1934.5 742.5C1934.5 1281.53 1497.31 1718.5 958 1718.5C418.693 1718.5 -18.5 1281.53 -18.5 742.5C-18.5 203.471 418.693 -233.5 958 -233.5C1497.31 -233.5 1934.5 203.471 1934.5 742.5Z" fill="white" stroke="#F7F8FC" stroke-width="3"/>
<ellipse opacity="0.2" cx="958" cy="742.5" rx="896" ry="895.5" fill="white" stroke="#F7F8FC" stroke-width="3" stroke-miterlimit="4.62023" stroke-linecap="round" stroke-dasharray="35 50 15 15"/>
<path opacity="0.3" d="M1772.5 742.5C1772.5 1192.06 1407.84 1556.5 958 1556.5C508.163 1556.5 143.5 1192.06 143.5 742.5C143.5 292.941 508.163 -71.5 958 -71.5C1407.84 -71.5 1772.5 292.941 1772.5 742.5Z" fill="white" stroke="#F7F8FC" stroke-width="3"/>
<ellipse opacity="0.4" cx="958" cy="742.5" rx="734" ry="733.5" fill="white" stroke="#F7F8FC" stroke-width="3" stroke-miterlimit="4.62023" stroke-linecap="round" stroke-dasharray="35 50 15 15"/>
<path opacity="0.5" d="M1607.5 742.5C1607.5 1100.93 1316.71 1391.5 958 1391.5C599.29 1391.5 308.5 1100.93 308.5 742.5C308.5 384.068 599.29 93.5 958 93.5C1316.71 93.5 1607.5 384.068 1607.5 742.5Z" fill="white" stroke="#F7F8FC" stroke-width="3"/>
<path opacity="0.6" d="M1528.5 742.5C1528.5 1057.3 1273.08 1312.5 958 1312.5C642.92 1312.5 387.5 1057.3 387.5 742.5C387.5 427.699 642.92 172.5 958 172.5C1273.08 172.5 1528.5 427.699 1528.5 742.5Z" fill="white" stroke="#F7F8FC" stroke-width="3"/>
<ellipse opacity="0.7" cx="958" cy="742.5" rx="495" ry="494.5" fill="white" stroke="#F7F8FC" stroke-width="3" stroke-miterlimit="4.62023" stroke-linecap="round" stroke-dasharray="35 50 15 15"/>
<path opacity="0.8" d="M1365.5 742.5C1365.5 967.278 1183.06 1149.5 958 1149.5C732.942 1149.5 550.5 967.278 550.5 742.5C550.5 517.722 732.942 335.5 958 335.5C1183.06 335.5 1365.5 517.722 1365.5 742.5Z" fill="white" stroke="#F7F8FC" stroke-width="3"/>
<ellipse opacity="0.9" cx="958" cy="742.5" rx="315" ry="314.5" fill="white" stroke="#F7F8FC" stroke-width="3" stroke-miterlimit="4.62023" stroke-linecap="round" stroke-dasharray="35 50 15 15"/>
<path d="M1181.5 742.5C1181.5 865.656 1081.44 965.5 958 965.5C834.561 965.5 734.5 865.656 734.5 742.5C734.5 619.344 834.561 519.5 958 519.5C1081.44 519.5 1181.5 619.344 1181.5 742.5Z" fill="white" stroke="#F7F8FC" stroke-width="3"/>
<ellipse cx="958" cy="742.5" rx="151" ry="150.5" fill="white" stroke="#F7F8FC" stroke-width="3" stroke-miterlimit="4.62023" stroke-linecap="round" stroke-dasharray="35 50 15 15"/>
</g>
<rect x="-1" y="632" width="1920" height="555" fill="url(#paint0_linear_4_2494)"/>
<circle cx="1690.5" cy="1004.5" r="6.5" fill="#F2F2F7"/>
<circle cx="1690.5" cy="1004.5" r="15" stroke="#F2F2F7"/>
<circle cx="212.5" cy="999.5" r="6.5" fill="#F2F2F7"/>
<circle cx="212.5" cy="999.5" r="15" stroke="#F2F2F7"/>
<g opacity="0.5">
<circle cx="526.5" cy="984.5" r="6.5" fill="#EAEAF5"/>
<circle cx="526.5" cy="984.5" r="15" stroke="#EAEAF5"/>
</g>
<g opacity="0.5">
<circle cx="1526.5" cy="701.5" r="6.5" fill="#EAEAF5"/>
<circle cx="1526.5" cy="701.5" r="15" stroke="#EAEAF5"/>
</g>
<g opacity="0.6">
<circle cx="397.5" cy="265.5" r="6.5" fill="#EAEAF5"/>
<circle cx="397.5" cy="265.5" r="15" stroke="#EAEAF5"/>
</g>
<g opacity="0.6">
<circle cx="1393.5" cy="259.5" r="6.5" fill="#EAEAF5"/>
<circle cx="1393.5" cy="259.5" r="15" stroke="#EAEAF5"/>
</g>
<circle cx="1874.5" cy="268.5" r="6.5" fill="#F2F2F7"/>
<circle cx="1874.5" cy="268.5" r="15" stroke="#F2F2F7"/>
<g opacity="0.05" filter="url(#filter0_f_4_2494)">
<path opacity="0.75" d="M1918 944.002C1599.88 944.002 1342 828.49 1342 686.002C1342 543.512 1599.88 428.001 1918 428.001V608.6C1822.57 608.6 1745.2 643.254 1745.2 686.002C1745.2 728.748 1822.57 763.402 1918 763.402V944.002Z" fill="#8BC0B7"/>
<path d="M-1.99994 514.001C96.4295 500.035 201.248 492.499 310.002 492.499C879.961 492.499 1342 699.458 1342 954.749C1342 980.374 1337.34 1005.51 1328.39 1030H687.18C710.069 1007.01 722.795 981.549 722.795 954.749C722.795 852.633 537.983 769.849 310.002 769.849C185.395 769.849 73.6896 794.578 -1.99994 833.677V514.001Z" fill="#B47DA0"/>
<path d="M1816.73 170C1768.97 363.498 1402.73 514.002 958 514.002C513.281 514.002 147.029 363.498 99.2776 170H717.163C755.309 212.833 848.767 243.1 958 243.1C1067.24 243.1 1160.69 212.833 1198.84 170H1816.73Z" fill="#2A27C9"/>
</g>
<defs>
<filter id="filter0_f_4_2494" x="-252" y="-80" width="2420" height="1360" filterUnits="userSpaceOnUse" color-interpolation-filters="sRGB">
<feFlood flood-opacity="0" result="BackgroundImageFix"/>
<feBlend mode="normal" in="SourceGraphic" in2="BackgroundImageFix" result="shape"/>
<feGaussianBlur stdDeviation="125" result="effect1_foregroundBlur_4_2494"/>
</filter>
<linearGradient id="paint0_linear_4_2494" x1="959" y1="632" x2="959" y2="1187" gradientUnits="userSpaceOnUse">
<stop stop-color="white" stop-opacity="0"/>
<stop offset="1" stop-color="white"/>
</linearGradient>
<clipPath id="clip0_4_2494">
<rect width="1920" height="1191" fill="white" transform="translate(-2 -4)"/>
</clipPath>
</defs>
</svg>
