<svg width="496" height="193" viewBox="0 0 496 193" fill="none" xmlns="http://www.w3.org/2000/svg">
<path d="M3.97159 147.273V156H2.91477V148.381H2.86364L0.732955 149.795V148.722L2.91477 147.273H3.97159ZM6.68153 156V155.233L9.56222 152.08C9.90028 151.71 10.1787 151.389 10.3974 151.116C10.6162 150.841 10.7781 150.582 10.8832 150.341C10.9912 150.097 11.0452 149.841 11.0452 149.574C11.0452 149.267 10.9713 149.001 10.8236 148.777C10.6787 148.553 10.4798 148.379 10.227 148.257C9.97415 148.135 9.69006 148.074 9.37472 148.074C9.03949 148.074 8.74687 148.143 8.49687 148.283C8.24972 148.419 8.05795 148.611 7.92159 148.858C7.78807 149.105 7.72131 149.395 7.72131 149.727H6.71562C6.71562 149.216 6.83352 148.767 7.06932 148.381C7.30511 147.994 7.62614 147.693 8.03239 147.477C8.44148 147.261 8.90028 147.153 9.40881 147.153C9.92017 147.153 10.3733 147.261 10.7682 147.477C11.1631 147.693 11.4727 147.984 11.6972 148.351C11.9216 148.717 12.0338 149.125 12.0338 149.574C12.0338 149.895 11.9756 150.209 11.8591 150.516C11.7455 150.82 11.5466 151.159 11.2625 151.534C10.9812 151.906 10.5906 152.361 10.0906 152.898L8.1304 154.994V155.062H12.1872V156H6.68153ZM14.8972 154.884C14.6869 154.884 14.5065 154.808 14.356 154.658C14.2054 154.507 14.1301 154.327 14.1301 154.116C14.1301 153.906 14.2054 153.726 14.356 153.575C14.5065 153.425 14.6869 153.349 14.8972 153.349C15.1074 153.349 15.2878 153.425 15.4384 153.575C15.5889 153.726 15.6642 153.906 15.6642 154.116C15.6642 154.256 15.6287 154.384 15.5577 154.5C15.4895 154.616 15.3972 154.71 15.2807 154.781C15.167 154.849 15.0392 154.884 14.8972 154.884ZM14.8972 150.469C14.6869 150.469 14.5065 150.393 14.356 150.243C14.2054 150.092 14.1301 149.912 14.1301 149.702C14.1301 149.491 14.2054 149.311 14.356 149.161C14.5065 149.01 14.6869 148.935 14.8972 148.935C15.1074 148.935 15.2878 149.01 15.4384 149.161C15.5889 149.311 15.6642 149.491 15.6642 149.702C15.6642 149.841 15.6287 149.969 15.5577 150.085C15.4895 150.202 15.3972 150.295 15.2807 150.366C15.167 150.435 15.0392 150.469 14.8972 150.469ZM20.4984 156.119C19.8564 156.119 19.3095 155.945 18.8578 155.595C18.4061 155.243 18.0609 154.733 17.8223 154.065C17.5837 153.395 17.4643 152.585 17.4643 151.636C17.4643 150.693 17.5837 149.888 17.8223 149.22C18.0638 148.55 18.4104 148.038 18.8621 147.686C19.3166 147.331 19.8621 147.153 20.4984 147.153C21.1348 147.153 21.6788 147.331 22.1305 147.686C22.5851 148.038 22.9317 148.55 23.1703 149.22C23.4118 149.888 23.5325 150.693 23.5325 151.636C23.5325 152.585 23.4132 153.395 23.1746 154.065C22.9359 154.733 22.5908 155.243 22.1391 155.595C21.6874 155.945 21.1405 156.119 20.4984 156.119ZM20.4984 155.182C21.1348 155.182 21.6291 154.875 21.9814 154.261C22.3337 153.648 22.5098 152.773 22.5098 151.636C22.5098 150.881 22.4288 150.237 22.2669 149.706C22.1078 149.175 21.8777 148.77 21.5766 148.491C21.2783 148.213 20.9189 148.074 20.4984 148.074C19.8678 148.074 19.3749 148.385 19.0197 149.007C18.6646 149.626 18.4871 150.503 18.4871 151.636C18.4871 152.392 18.5666 153.034 18.7257 153.562C18.8848 154.091 19.1135 154.493 19.4118 154.768C19.7129 155.044 20.0751 155.182 20.4984 155.182ZM28.1984 156.119C27.5564 156.119 27.0095 155.945 26.5578 155.595C26.1061 155.243 25.7609 154.733 25.5223 154.065C25.2837 153.395 25.1643 152.585 25.1643 151.636C25.1643 150.693 25.2837 149.888 25.5223 149.22C25.7638 148.55 26.1104 148.038 26.5621 147.686C27.0166 147.331 27.5621 147.153 28.1984 147.153C28.8348 147.153 29.3788 147.331 29.8305 147.686C30.2851 148.038 30.6317 148.55 30.8703 149.22C31.1118 149.888 31.2325 150.693 31.2325 151.636C31.2325 152.585 31.1132 153.395 30.8746 154.065C30.6359 154.733 30.2908 155.243 29.8391 155.595C29.3874 155.945 28.8405 156.119 28.1984 156.119ZM28.1984 155.182C28.8348 155.182 29.3291 154.875 29.6814 154.261C30.0337 153.648 30.2098 152.773 30.2098 151.636C30.2098 150.881 30.1288 150.237 29.9669 149.706C29.8078 149.175 29.5777 148.77 29.2766 148.491C28.9783 148.213 28.6189 148.074 28.1984 148.074C27.5678 148.074 27.0749 148.385 26.7197 149.007C26.3646 149.626 26.1871 150.503 26.1871 151.636C26.1871 152.392 26.2666 153.034 26.4257 153.562C26.5848 154.091 26.8135 154.493 27.1118 154.768C27.4129 155.044 27.7751 155.182 28.1984 155.182Z" fill="#7780A1"/>
<path d="M119.31 147.273V156H118.253V148.381H118.202L116.071 149.795V148.722L118.253 147.273H119.31ZM124.969 156.119C124.406 156.119 123.905 156.023 123.464 155.83C123.027 155.636 122.679 155.368 122.42 155.024C122.165 154.678 122.025 154.276 122.003 153.818H123.077C123.099 154.099 123.196 154.342 123.366 154.547C123.537 154.749 123.76 154.905 124.035 155.016C124.311 155.126 124.616 155.182 124.952 155.182C125.327 155.182 125.659 155.116 125.949 154.986C126.239 154.855 126.466 154.673 126.631 154.44C126.795 154.207 126.878 153.938 126.878 153.631C126.878 153.31 126.798 153.027 126.639 152.783C126.48 152.536 126.247 152.342 125.94 152.203C125.633 152.064 125.258 151.994 124.815 151.994H124.116V151.057H124.815C125.162 151.057 125.466 150.994 125.727 150.869C125.991 150.744 126.197 150.568 126.345 150.341C126.496 150.114 126.571 149.847 126.571 149.54C126.571 149.244 126.506 148.987 126.375 148.768C126.244 148.55 126.06 148.379 125.821 148.257C125.585 148.135 125.307 148.074 124.986 148.074C124.685 148.074 124.4 148.129 124.133 148.24C123.869 148.348 123.653 148.506 123.486 148.713C123.318 148.918 123.227 149.165 123.213 149.455H122.19C122.207 148.997 122.345 148.597 122.604 148.253C122.862 147.906 123.2 147.636 123.618 147.443C124.038 147.25 124.5 147.153 125.003 147.153C125.543 147.153 126.006 147.263 126.392 147.482C126.778 147.697 127.075 147.983 127.283 148.338C127.49 148.693 127.594 149.077 127.594 149.489C127.594 149.98 127.464 150.399 127.206 150.746C126.95 151.092 126.602 151.332 126.162 151.466V151.534C126.713 151.625 127.143 151.859 127.453 152.237C127.763 152.612 127.918 153.077 127.918 153.631C127.918 154.105 127.788 154.531 127.53 154.909C127.274 155.284 126.925 155.58 126.481 155.795C126.038 156.011 125.534 156.119 124.969 156.119ZM130.61 154.884C130.4 154.884 130.22 154.808 130.069 154.658C129.919 154.507 129.843 154.327 129.843 154.116C129.843 153.906 129.919 153.726 130.069 153.575C130.22 153.425 130.4 153.349 130.61 153.349C130.821 153.349 131.001 153.425 131.152 153.575C131.302 153.726 131.377 153.906 131.377 154.116C131.377 154.256 131.342 154.384 131.271 154.5C131.203 154.616 131.11 154.71 130.994 154.781C130.88 154.849 130.752 154.884 130.61 154.884ZM130.61 150.469C130.4 150.469 130.22 150.393 130.069 150.243C129.919 150.092 129.843 149.912 129.843 149.702C129.843 149.491 129.919 149.311 130.069 149.161C130.22 149.01 130.4 148.935 130.61 148.935C130.821 148.935 131.001 149.01 131.152 149.161C131.302 149.311 131.377 149.491 131.377 149.702C131.377 149.841 131.342 149.969 131.271 150.085C131.203 150.202 131.11 150.295 130.994 150.366C130.88 150.435 130.752 150.469 130.61 150.469ZM136.212 156.119C135.57 156.119 135.023 155.945 134.571 155.595C134.119 155.243 133.774 154.733 133.536 154.065C133.297 153.395 133.178 152.585 133.178 151.636C133.178 150.693 133.297 149.888 133.536 149.22C133.777 148.55 134.124 148.038 134.575 147.686C135.03 147.331 135.575 147.153 136.212 147.153C136.848 147.153 137.392 147.331 137.844 147.686C138.298 148.038 138.645 148.55 138.884 149.22C139.125 149.888 139.246 150.693 139.246 151.636C139.246 152.585 139.126 153.395 138.888 154.065C138.649 154.733 138.304 155.243 137.852 155.595C137.401 155.945 136.854 156.119 136.212 156.119ZM136.212 155.182C136.848 155.182 137.342 154.875 137.695 154.261C138.047 153.648 138.223 152.773 138.223 151.636C138.223 150.881 138.142 150.237 137.98 149.706C137.821 149.175 137.591 148.77 137.29 148.491C136.992 148.213 136.632 148.074 136.212 148.074C135.581 148.074 135.088 148.385 134.733 149.007C134.378 149.626 134.2 150.503 134.2 151.636C134.2 152.392 134.28 153.034 134.439 153.562C134.598 154.091 134.827 154.493 135.125 154.768C135.426 155.044 135.788 155.182 136.212 155.182ZM143.912 156.119C143.27 156.119 142.723 155.945 142.271 155.595C141.819 155.243 141.474 154.733 141.236 154.065C140.997 153.395 140.878 152.585 140.878 151.636C140.878 150.693 140.997 149.888 141.236 149.22C141.477 148.55 141.824 148.038 142.275 147.686C142.73 147.331 143.275 147.153 143.912 147.153C144.548 147.153 145.092 147.331 145.544 147.686C145.998 148.038 146.345 148.55 146.584 149.22C146.825 149.888 146.946 150.693 146.946 151.636C146.946 152.585 146.826 153.395 146.588 154.065C146.349 154.733 146.004 155.243 145.552 155.595C145.101 155.945 144.554 156.119 143.912 156.119ZM143.912 155.182C144.548 155.182 145.042 154.875 145.395 154.261C145.747 153.648 145.923 152.773 145.923 151.636C145.923 150.881 145.842 150.237 145.68 149.706C145.521 149.175 145.291 148.77 144.99 148.491C144.692 148.213 144.332 148.074 143.912 148.074C143.281 148.074 142.788 148.385 142.433 149.007C142.078 149.626 141.9 150.503 141.9 151.636C141.9 152.392 141.98 153.034 142.139 153.562C142.298 154.091 142.527 154.493 142.825 154.768C143.126 155.044 143.488 155.182 143.912 155.182Z" fill="#7780A1"/>
<path d="M235.281 147.273V156H234.224V148.381H234.173L232.042 149.795V148.722L234.224 147.273H235.281ZM237.786 154.21V153.341L241.621 147.273H242.252V148.619H241.826L238.928 153.205V153.273H244.093V154.21H237.786ZM241.894 156V153.946V153.541V147.273H242.9V156H241.894ZM246.64 154.884C246.43 154.884 246.249 154.808 246.099 154.658C245.948 154.507 245.873 154.327 245.873 154.116C245.873 153.906 245.948 153.726 246.099 153.575C246.249 153.425 246.43 153.349 246.64 153.349C246.85 153.349 247.03 153.425 247.181 153.575C247.331 153.726 247.407 153.906 247.407 154.116C247.407 154.256 247.371 154.384 247.3 154.5C247.232 154.616 247.14 154.71 247.023 154.781C246.91 154.849 246.782 154.884 246.64 154.884ZM246.64 150.469C246.43 150.469 246.249 150.393 246.099 150.243C245.948 150.092 245.873 149.912 245.873 149.702C245.873 149.491 245.948 149.311 246.099 149.161C246.249 149.01 246.43 148.935 246.64 148.935C246.85 148.935 247.03 149.01 247.181 149.161C247.331 149.311 247.407 149.491 247.407 149.702C247.407 149.841 247.371 149.969 247.3 150.085C247.232 150.202 247.14 150.295 247.023 150.366C246.91 150.435 246.782 150.469 246.64 150.469ZM252.241 156.119C251.599 156.119 251.052 155.945 250.6 155.595C250.149 155.243 249.804 154.733 249.565 154.065C249.326 153.395 249.207 152.585 249.207 151.636C249.207 150.693 249.326 149.888 249.565 149.22C249.806 148.55 250.153 148.038 250.605 147.686C251.059 147.331 251.605 147.153 252.241 147.153C252.877 147.153 253.421 147.331 253.873 147.686C254.328 148.038 254.674 148.55 254.913 149.22C255.154 149.888 255.275 150.693 255.275 151.636C255.275 152.585 255.156 153.395 254.917 154.065C254.679 154.733 254.333 155.243 253.882 155.595C253.43 155.945 252.883 156.119 252.241 156.119ZM252.241 155.182C252.877 155.182 253.372 154.875 253.724 154.261C254.076 153.648 254.252 152.773 254.252 151.636C254.252 150.881 254.171 150.237 254.009 149.706C253.85 149.175 253.62 148.77 253.319 148.491C253.021 148.213 252.661 148.074 252.241 148.074C251.61 148.074 251.117 148.385 250.762 149.007C250.407 149.626 250.23 150.503 250.23 151.636C250.23 152.392 250.309 153.034 250.468 153.562C250.627 154.091 250.856 154.493 251.154 154.768C251.456 155.044 251.818 155.182 252.241 155.182ZM259.941 156.119C259.299 156.119 258.752 155.945 258.3 155.595C257.849 155.243 257.504 154.733 257.265 154.065C257.026 153.395 256.907 152.585 256.907 151.636C256.907 150.693 257.026 149.888 257.265 149.22C257.506 148.55 257.853 148.038 258.305 147.686C258.759 147.331 259.305 147.153 259.941 147.153C260.577 147.153 261.121 147.331 261.573 147.686C262.028 148.038 262.374 148.55 262.613 149.22C262.854 149.888 262.975 150.693 262.975 151.636C262.975 152.585 262.856 153.395 262.617 154.065C262.379 154.733 262.033 155.243 261.582 155.595C261.13 155.945 260.583 156.119 259.941 156.119ZM259.941 155.182C260.577 155.182 261.072 154.875 261.424 154.261C261.776 153.648 261.952 152.773 261.952 151.636C261.952 150.881 261.871 150.237 261.709 149.706C261.55 149.175 261.32 148.77 261.019 148.491C260.721 148.213 260.361 148.074 259.941 148.074C259.31 148.074 258.817 148.385 258.462 149.007C258.107 149.626 257.93 150.503 257.93 151.636C257.93 152.392 258.009 153.034 258.168 153.562C258.327 154.091 258.556 154.493 258.854 154.768C259.156 155.044 259.518 155.182 259.941 155.182Z" fill="#7780A1"/>
<path d="M350.98 147.273V156H349.923V148.381H349.872L347.741 149.795V148.722L349.923 147.273H350.98ZM356.417 156.119C355.917 156.119 355.467 156.02 355.066 155.821C354.666 155.622 354.345 155.349 354.103 155.003C353.862 154.656 353.73 154.261 353.707 153.818H354.73C354.769 154.213 354.948 154.54 355.266 154.798C355.587 155.054 355.971 155.182 356.417 155.182C356.775 155.182 357.093 155.098 357.372 154.93C357.653 154.763 357.873 154.533 358.032 154.24C358.194 153.945 358.275 153.611 358.275 153.239C358.275 152.858 358.191 152.518 358.024 152.22C357.859 151.919 357.631 151.682 357.342 151.509C357.052 151.335 356.721 151.247 356.349 151.244C356.082 151.241 355.808 151.283 355.526 151.368C355.245 151.45 355.014 151.557 354.832 151.688L353.843 151.568L354.372 147.273H358.906V148.21H355.258L354.951 150.784H355.002C355.181 150.642 355.406 150.524 355.676 150.43C355.945 150.337 356.227 150.29 356.519 150.29C357.053 150.29 357.529 150.418 357.947 150.673C358.367 150.926 358.697 151.273 358.935 151.713C359.177 152.153 359.298 152.656 359.298 153.222C359.298 153.778 359.173 154.276 358.923 154.713C358.676 155.148 358.335 155.491 357.9 155.744C357.465 155.994 356.971 156.119 356.417 156.119ZM361.941 154.884C361.73 154.884 361.55 154.808 361.399 154.658C361.249 154.507 361.173 154.327 361.173 154.116C361.173 153.906 361.249 153.726 361.399 153.575C361.55 153.425 361.73 153.349 361.941 153.349C362.151 153.349 362.331 153.425 362.482 153.575C362.632 153.726 362.708 153.906 362.708 154.116C362.708 154.256 362.672 154.384 362.601 154.5C362.533 154.616 362.441 154.71 362.324 154.781C362.21 154.849 362.083 154.884 361.941 154.884ZM361.941 150.469C361.73 150.469 361.55 150.393 361.399 150.243C361.249 150.092 361.173 149.912 361.173 149.702C361.173 149.491 361.249 149.311 361.399 149.161C361.55 149.01 361.73 148.935 361.941 148.935C362.151 148.935 362.331 149.01 362.482 149.161C362.632 149.311 362.708 149.491 362.708 149.702C362.708 149.841 362.672 149.969 362.601 150.085C362.533 150.202 362.441 150.295 362.324 150.366C362.21 150.435 362.083 150.469 361.941 150.469ZM367.542 156.119C366.9 156.119 366.353 155.945 365.901 155.595C365.449 155.243 365.104 154.733 364.866 154.065C364.627 153.395 364.508 152.585 364.508 151.636C364.508 150.693 364.627 149.888 364.866 149.22C365.107 148.55 365.454 148.038 365.905 147.686C366.36 147.331 366.905 147.153 367.542 147.153C368.178 147.153 368.722 147.331 369.174 147.686C369.628 148.038 369.975 148.55 370.214 149.22C370.455 149.888 370.576 150.693 370.576 151.636C370.576 152.585 370.457 153.395 370.218 154.065C369.979 154.733 369.634 155.243 369.182 155.595C368.731 155.945 368.184 156.119 367.542 156.119ZM367.542 155.182C368.178 155.182 368.672 154.875 369.025 154.261C369.377 153.648 369.553 152.773 369.553 151.636C369.553 150.881 369.472 150.237 369.31 149.706C369.151 149.175 368.921 148.77 368.62 148.491C368.322 148.213 367.962 148.074 367.542 148.074C366.911 148.074 366.418 148.385 366.063 149.007C365.708 149.626 365.53 150.503 365.53 151.636C365.53 152.392 365.61 153.034 365.769 153.562C365.928 154.091 366.157 154.493 366.455 154.768C366.756 155.044 367.119 155.182 367.542 155.182ZM375.242 156.119C374.6 156.119 374.053 155.945 373.601 155.595C373.149 155.243 372.804 154.733 372.566 154.065C372.327 153.395 372.208 152.585 372.208 151.636C372.208 150.693 372.327 149.888 372.566 149.22C372.807 148.55 373.154 148.038 373.605 147.686C374.06 147.331 374.605 147.153 375.242 147.153C375.878 147.153 376.422 147.331 376.874 147.686C377.328 148.038 377.675 148.55 377.914 149.22C378.155 149.888 378.276 150.693 378.276 151.636C378.276 152.585 378.157 153.395 377.918 154.065C377.679 154.733 377.334 155.243 376.882 155.595C376.431 155.945 375.884 156.119 375.242 156.119ZM375.242 155.182C375.878 155.182 376.372 154.875 376.725 154.261C377.077 153.648 377.253 152.773 377.253 151.636C377.253 150.881 377.172 150.237 377.01 149.706C376.851 149.175 376.621 148.77 376.32 148.491C376.022 148.213 375.662 148.074 375.242 148.074C374.611 148.074 374.118 148.385 373.763 149.007C373.408 149.626 373.23 150.503 373.23 151.636C373.23 152.392 373.31 153.034 373.469 153.562C373.628 154.091 373.857 154.493 374.155 154.768C374.456 155.044 374.819 155.182 375.242 155.182Z" fill="#7780A1"/>
<path d="M466.8 147.273V156H465.744V148.381H465.693L463.562 149.795V148.722L465.744 147.273H466.8ZM472.408 156.119C472.05 156.114 471.692 156.045 471.334 155.915C470.976 155.784 470.65 155.564 470.354 155.254C470.059 154.942 469.822 154.52 469.643 153.989C469.464 153.455 469.374 152.784 469.374 151.977C469.374 151.205 469.447 150.52 469.591 149.923C469.736 149.324 469.947 148.82 470.222 148.411C470.498 147.999 470.83 147.686 471.219 147.473C471.611 147.26 472.053 147.153 472.545 147.153C473.033 147.153 473.468 147.251 473.849 147.447C474.232 147.641 474.545 147.911 474.786 148.257C475.027 148.604 475.184 149.003 475.255 149.455H474.215C474.118 149.062 473.931 148.737 473.652 148.479C473.374 148.22 473.005 148.091 472.545 148.091C471.868 148.091 471.336 148.385 470.947 148.973C470.56 149.561 470.366 150.386 470.363 151.449H470.431C470.59 151.207 470.779 151.001 470.998 150.831C471.219 150.658 471.464 150.524 471.731 150.43C471.998 150.337 472.28 150.29 472.579 150.29C473.079 150.29 473.536 150.415 473.951 150.665C474.366 150.912 474.698 151.254 474.948 151.692C475.198 152.126 475.323 152.625 475.323 153.188C475.323 153.727 475.202 154.222 474.961 154.67C474.719 155.116 474.38 155.472 473.942 155.736C473.508 155.997 472.996 156.125 472.408 156.119ZM472.408 155.182C472.766 155.182 473.087 155.092 473.371 154.913C473.658 154.734 473.884 154.494 474.049 154.193C474.216 153.892 474.3 153.557 474.3 153.188C474.3 152.827 474.219 152.499 474.057 152.203C473.898 151.905 473.678 151.668 473.397 151.491C473.118 151.315 472.8 151.227 472.442 151.227C472.172 151.227 471.921 151.281 471.688 151.389C471.455 151.494 471.25 151.639 471.074 151.824C470.901 152.009 470.765 152.22 470.665 152.459C470.566 152.695 470.516 152.943 470.516 153.205C470.516 153.551 470.597 153.875 470.759 154.176C470.924 154.477 471.148 154.72 471.432 154.905C471.719 155.089 472.045 155.182 472.408 155.182ZM477.949 154.884C477.738 154.884 477.558 154.808 477.408 154.658C477.257 154.507 477.182 154.327 477.182 154.116C477.182 153.906 477.257 153.726 477.408 153.575C477.558 153.425 477.738 153.349 477.949 153.349C478.159 153.349 478.339 153.425 478.49 153.575C478.64 153.726 478.716 153.906 478.716 154.116C478.716 154.256 478.68 154.384 478.609 154.5C478.541 154.616 478.449 154.71 478.332 154.781C478.219 154.849 478.091 154.884 477.949 154.884ZM477.949 150.469C477.738 150.469 477.558 150.393 477.408 150.243C477.257 150.092 477.182 149.912 477.182 149.702C477.182 149.491 477.257 149.311 477.408 149.161C477.558 149.01 477.738 148.935 477.949 148.935C478.159 148.935 478.339 149.01 478.49 149.161C478.64 149.311 478.716 149.491 478.716 149.702C478.716 149.841 478.68 149.969 478.609 150.085C478.541 150.202 478.449 150.295 478.332 150.366C478.219 150.435 478.091 150.469 477.949 150.469ZM483.55 156.119C482.908 156.119 482.361 155.945 481.909 155.595C481.458 155.243 481.113 154.733 480.874 154.065C480.635 153.395 480.516 152.585 480.516 151.636C480.516 150.693 480.635 149.888 480.874 149.22C481.115 148.55 481.462 148.038 481.914 147.686C482.368 147.331 482.914 147.153 483.55 147.153C484.186 147.153 484.73 147.331 485.182 147.686C485.637 148.038 485.983 148.55 486.222 149.22C486.463 149.888 486.584 150.693 486.584 151.636C486.584 152.585 486.465 153.395 486.226 154.065C485.988 154.733 485.642 155.243 485.191 155.595C484.739 155.945 484.192 156.119 483.55 156.119ZM483.55 155.182C484.186 155.182 484.681 154.875 485.033 154.261C485.385 153.648 485.561 152.773 485.561 151.636C485.561 150.881 485.48 150.237 485.318 149.706C485.159 149.175 484.929 148.77 484.628 148.491C484.33 148.213 483.97 148.074 483.55 148.074C482.919 148.074 482.426 148.385 482.071 149.007C481.716 149.626 481.539 150.503 481.539 151.636C481.539 152.392 481.618 153.034 481.777 153.562C481.936 154.091 482.165 154.493 482.463 154.768C482.764 155.044 483.127 155.182 483.55 155.182ZM491.25 156.119C490.608 156.119 490.061 155.945 489.609 155.595C489.158 155.243 488.813 154.733 488.574 154.065C488.335 153.395 488.216 152.585 488.216 151.636C488.216 150.693 488.335 149.888 488.574 149.22C488.815 148.55 489.162 148.038 489.614 147.686C490.068 147.331 490.614 147.153 491.25 147.153C491.886 147.153 492.43 147.331 492.882 147.686C493.337 148.038 493.683 148.55 493.922 149.22C494.163 149.888 494.284 150.693 494.284 151.636C494.284 152.585 494.165 153.395 493.926 154.065C493.688 154.733 493.342 155.243 492.891 155.595C492.439 155.945 491.892 156.119 491.25 156.119ZM491.25 155.182C491.886 155.182 492.381 154.875 492.733 154.261C493.085 153.648 493.261 152.773 493.261 151.636C493.261 150.881 493.18 150.237 493.018 149.706C492.859 149.175 492.629 148.77 492.328 148.491C492.03 148.213 491.67 148.074 491.25 148.074C490.619 148.074 490.126 148.385 489.771 149.007C489.416 149.626 489.239 150.503 489.239 151.636C489.239 152.392 489.318 153.034 489.477 153.562C489.636 154.091 489.865 154.493 490.163 154.768C490.464 155.044 490.827 155.182 491.25 155.182Z" fill="#7780A1"/>
<line x1="17" y1="12" x2="17" y2="126" stroke="#E2E2ED" stroke-width="2" stroke-linecap="round" stroke-dasharray="5 5"/>
<line x1="132" y1="12" x2="132" y2="126" stroke="#E2E2ED" stroke-width="2" stroke-linecap="round" stroke-dasharray="5 5"/>
<line x1="248" y1="12" x2="248" y2="126" stroke="#E2E2ED" stroke-width="2" stroke-linecap="round" stroke-dasharray="5 5"/>
<line x1="364" y1="12" x2="364" y2="126" stroke="#E2E2ED" stroke-width="2" stroke-linecap="round" stroke-dasharray="5 5"/>
<line x1="480" y1="12" x2="480" y2="126" stroke="#E2E2ED" stroke-width="2" stroke-linecap="round" stroke-dasharray="5 5"/>
<path d="M59.8211 108H0V127H480.5V34H376.22C368.162 34 360.192 35.6791 352.819 38.9303L316.181 55.0857C308.808 58.3369 300.838 60.016 292.78 60.016L257.658 60.016C251.918 60.016 246.209 60.8681 240.719 62.5445L198.281 75.5035C192.791 77.1799 187.082 78.032 181.342 78.032L147.179 78.032C138.183 78.032 129.31 80.1245 121.263 84.1442L85.7374 101.888C77.6895 105.907 68.817 108 59.8211 108Z" fill="url(#paint0_linear_4_2950)" fill-opacity="0.1"/>
<path d="M0 108H59.8211C68.817 108 77.6895 105.907 85.7374 101.888L121.263 84.1442C129.31 80.1245 138.183 78.032 147.179 78.032L181.342 78.032C187.082 78.032 192.791 77.1799 198.281 75.5035L240.719 62.5445C246.209 60.8681 251.918 60.016 257.658 60.016L292.78 60.016C300.838 60.016 308.808 58.3369 316.181 55.0857L352.819 38.9303C360.192 35.6791 368.162 34 376.22 34L480.5 34" stroke="url(#paint1_linear_4_2950)" stroke-width="2"/>
<g filter="url(#filter0_d_4_2950)">
<circle cx="364" cy="35" r="6" fill="white"/>
<circle cx="364" cy="35" r="4.5" stroke="#76DECC" stroke-width="3"/>
</g>
<rect x="324" y="56" width="79" height="28" rx="4" fill="#060714"/>
<path d="M335.354 74V72.18C335.354 71.7813 335.415 71.4347 335.536 71.14C335.666 70.8453 335.874 70.5853 336.16 70.36C336.455 70.126 336.841 69.905 337.317 69.697L338.929 68.982C339.328 68.8 339.631 68.579 339.839 68.319C340.056 68.0503 340.164 67.708 340.164 67.292C340.164 66.8327 340.026 66.4687 339.748 66.2C339.48 65.9227 339.094 65.784 338.591 65.784C338.089 65.784 337.699 65.9227 337.421 66.2C337.153 66.4773 337.018 66.863 337.018 67.357H335.237C335.237 66.7677 335.363 66.239 335.614 65.771C335.866 65.2943 336.238 64.9217 336.732 64.653C337.226 64.3757 337.846 64.237 338.591 64.237C339.337 64.237 339.956 64.3713 340.45 64.64C340.944 64.9087 341.317 65.2683 341.568 65.719C341.82 66.161 341.945 66.655 341.945 67.201V67.37C341.945 68.0807 341.746 68.6743 341.347 69.151C340.949 69.619 340.364 70.0263 339.592 70.373L337.98 71.088C337.677 71.218 337.465 71.3567 337.343 71.504C337.222 71.6427 337.161 71.8333 337.161 72.076V72.908L336.719 72.427H341.984V74H335.354ZM343.601 74V71.92H345.629V74H343.601ZM350.75 74.247C350.004 74.247 349.363 74.0997 348.826 73.805C348.297 73.5103 347.89 73.1203 347.604 72.635C347.326 72.141 347.188 71.6037 347.188 71.023H348.969C348.969 71.3523 349.042 71.6427 349.19 71.894C349.346 72.1453 349.558 72.3447 349.827 72.492C350.095 72.6307 350.407 72.7 350.763 72.7C351.135 72.7 351.456 72.622 351.725 72.466C351.993 72.31 352.197 72.0977 352.336 71.829C352.483 71.5603 352.557 71.2527 352.557 70.906C352.557 70.568 352.483 70.2647 352.336 69.996C352.197 69.7187 351.993 69.502 351.725 69.346C351.465 69.1813 351.148 69.099 350.776 69.099C350.464 69.099 350.169 69.1597 349.892 69.281C349.614 69.4023 349.398 69.5627 349.242 69.762H347.539L348.02 64.51H353.519V66.083H348.826L349.476 65.576L349.164 68.852L348.722 68.722C348.973 68.436 349.281 68.1977 349.645 68.007C350.009 67.8163 350.468 67.721 351.023 67.721C351.725 67.721 352.323 67.864 352.817 68.15C353.311 68.436 353.688 68.8173 353.948 69.294C354.208 69.762 354.338 70.2733 354.338 70.828V70.997C354.338 71.5603 354.199 72.089 353.922 72.583C353.644 73.077 353.237 73.48 352.7 73.792C352.171 74.0953 351.521 74.247 350.75 74.247ZM359.227 74.247C358.482 74.247 357.84 74.0997 357.303 73.805C356.774 73.5103 356.367 73.1203 356.081 72.635C355.804 72.141 355.665 71.6037 355.665 71.023H357.446C357.446 71.3523 357.52 71.6427 357.667 71.894C357.823 72.1453 358.035 72.3447 358.304 72.492C358.573 72.6307 358.885 72.7 359.24 72.7C359.613 72.7 359.933 72.622 360.202 72.466C360.471 72.31 360.674 72.0977 360.813 71.829C360.96 71.5603 361.034 71.2527 361.034 70.906C361.034 70.568 360.96 70.2647 360.813 69.996C360.674 69.7187 360.471 69.502 360.202 69.346C359.942 69.1813 359.626 69.099 359.253 69.099C358.941 69.099 358.646 69.1597 358.369 69.281C358.092 69.4023 357.875 69.5627 357.719 69.762H356.016L356.497 64.51H361.996V66.083H357.303L357.953 65.576L357.641 68.852L357.199 68.722C357.45 68.436 357.758 68.1977 358.122 68.007C358.486 67.8163 358.945 67.721 359.5 67.721C360.202 67.721 360.8 67.864 361.294 68.15C361.788 68.436 362.165 68.8173 362.425 69.294C362.685 69.762 362.815 70.2733 362.815 70.828V70.997C362.815 71.5603 362.676 72.089 362.399 72.583C362.122 73.077 361.714 73.48 361.177 73.792C360.648 74.0953 359.998 74.247 359.227 74.247ZM367.681 74V64.51H369.488V74H367.681ZM369.228 74V72.44H373.531V74H369.228ZM369.228 69.957V68.397H373.193V69.957H369.228ZM369.228 66.07V64.51H373.427V66.07H369.228ZM377.497 74V65.875H379.343V74H377.497ZM374.754 66.135V64.51H382.086V66.135H374.754ZM389.987 74V64.51H391.833V74H389.987ZM383.76 74V64.51H385.606V74H383.76ZM385.268 70.061V68.436H390.325V70.061H385.268Z" fill="white"/>
<path d="M360.828 54L364 50.8284L367.172 54H360.828Z" stroke="#060714" stroke-width="4"/>
<line x1="2" y1="191" x2="494" y2="191" stroke="#E2E2ED" stroke-width="4" stroke-linecap="round"/>
<line opacity="0.5" x1="349" y1="191" x2="494" y2="191" stroke="#7780A1" stroke-width="4" stroke-linecap="round"/>
<defs>
<filter id="filter0_d_4_2950" x="343" y="14" width="42" height="42" filterUnits="userSpaceOnUse" color-interpolation-filters="sRGB">
<feFlood flood-opacity="0" result="BackgroundImageFix"/>
<feColorMatrix in="SourceAlpha" type="matrix" values="0 0 0 0 0 0 0 0 0 0 0 0 0 0 0 0 0 0 127 0" result="hardAlpha"/>
<feOffset/>
<feGaussianBlur stdDeviation="7.5"/>
<feComposite in2="hardAlpha" operator="out"/>
<feColorMatrix type="matrix" values="0 0 0 0 0.462745 0 0 0 0 0.870588 0 0 0 0 0.8 0 0 0 0.5 0"/>
<feBlend mode="normal" in2="BackgroundImageFix" result="effect1_dropShadow_4_2950"/>
<feBlend mode="normal" in="SourceGraphic" in2="effect1_dropShadow_4_2950" result="shape"/>
</filter>
<linearGradient id="paint0_linear_4_2950" x1="240.25" y1="34" x2="240.25" y2="135" gradientUnits="userSpaceOnUse">
<stop stop-color="#76DECC"/>
<stop offset="1" stop-color="#76DECC" stop-opacity="0"/>
</linearGradient>
<linearGradient id="paint1_linear_4_2950" x1="37" y1="108" x2="481" y2="108" gradientUnits="userSpaceOnUse">
<stop offset="0.736486" stop-color="#76DECC"/>
<stop offset="1" stop-color="#76DECC" stop-opacity="0"/>
</linearGradient>
</defs>
</svg>
